<?xml version="1.0" standalone="no"?>
<!DOCTYPE svg PUBLIC "-//W3C//DTD SVG 20010904//EN"
 "http://www.w3.org/TR/2001/REC-SVG-20010904/DTD/svg10.dtd">
<svg version="1.0" xmlns="http://www.w3.org/2000/svg"
 width="612.000000pt" height="490.000000pt" viewBox="0 0 612.000000 490.000000"
 preserveAspectRatio="xMidYMid meet">
<metadata>
Created by potrace 1.16, written by Peter Selinger 2001-2019
</metadata>
<g transform="translate(0.000000,490.000000) scale(0.100000,-0.100000)"
fill="#000000" stroke="none">
<path d="M1784 4551 c-17 -10 -36 -32 -42 -47 -16 -40 -424 -3413 -417 -3446
6 -24 65 -88 83 -88 9 0 229 -27 992 -120 1546 -189 1471 -181 1510 -162 19 9
42 31 52 47 13 23 45 259 132 985 64 525 116 963 116 972 0 15 11 17 84 15 81
-2 86 -1 115 28 17 16 35 45 40 65 5 19 38 270 72 557 61 507 63 523 46 557
-22 47 -66 73 -139 81 -57 7 -59 8 -54 34 3 14 8 55 11 91 5 54 3 70 -14 97
-25 39 -61 58 -126 67 -88 11 -1688 205 -2030 246 -181 22 -346 40 -365 40
-19 0 -49 -9 -66 -19z m775 -156 c113 -35 240 -76 281 -90 74 -26 79 -27 580
-40 278 -8 526 -14 553 -15 l47 0 0 -104 0 -103 137 -22 c76 -12 139 -23 140
-25 2 -2 -1 -27 -7 -56 -17 -87 -19 -83 83 -115 50 -16 94 -30 96 -31 3 -3
-95 -322 -335 -1093 -94 -302 -108 -355 -138 -545 -33 -201 -35 -227 -41 -556
-3 -190 -8 -375 -11 -412 l-6 -67 -56 2 -56 2 -21 -125 -21 -125 -29 3 c-17 1
-61 7 -98 13 -38 6 -72 7 -77 3 -4 -5 -15 -35 -24 -67 -9 -31 -22 -57 -28 -57
-6 0 -218 66 -472 146 l-461 146 -360 59 c-232 38 -389 59 -442 59 -65 0 -83
3 -83 14 0 10 -19 16 -66 21 -65 7 -66 8 -61 35 3 15 9 49 12 77 l7 49 -96 28
c-53 16 -96 32 -96 35 0 9 123 409 281 912 l51 164 24 890 c12 490 23 892 23
895 1 3 68 4 151 2 l150 -3 0 25 c0 18 5 26 18 26 19 0 134 -17 169 -25 20 -5
25 2 44 65 11 38 23 70 26 70 3 0 98 -29 212 -65z"/>
</g>
</svg>
