<svg width="50" height="56" viewBox="0 0 50 56" fill="none" xmlns="http://www.w3.org/2000/svg">
<path d="M3.86231 8.72672C4.03881 8.011 4.22962 7.40334 4.4971 6.94903C4.72147 6.56792 5.2589 6.11111 5.2589 6.11111C5.2589 6.11111 10.9037 4.38082 15.5666 3.11639C20.2295 1.85195 19.3263 1.87045 21.7906 1.38778C22.7986 1.19034 23.3566 1.00929 24.3808 0.930652C25.1817 0.869156 26.4377 0.930652 26.4377 0.930652L41.5219 1.99718C41.5219 1.99718 43.3503 2.60705 44.1883 3.44467C44.702 3.95813 45.2549 4.96832 45.2549 4.96832L46.3214 11.8248L48.6757 27.9737C48.6757 27.9737 49.4412 31.9624 48.9335 34.7506C48.7848 35.567 48.4545 37.346 48.4545 37.346C48.4545 37.346 47.3184 39.9941 46.3214 41.536C44.9021 43.7312 41.9028 46.5641 41.9028 46.5641C41.9028 46.5641 38.0607 50.0371 35.4273 52.0493C34.0559 53.0971 31.8467 54.6395 31.8467 54.6395L30.787 54.8568L29.4088 54.6395L19.2003 49.9923L14.7056 47.4783L10.8202 44.1263L8.63323 41.126L7.84102 39.5416L6.87526 35.2891L4.28235 20.9972C4.28235 20.9972 3.39046 15.9 3.5338 11.6419C3.57462 10.4294 3.57182 9.90468 3.86231 8.72672Z" fill="white"/>
<path d="M30.787 54.8568L29.4088 54.6395L19.2003 49.9923L14.7056 47.4783L10.8202 44.1263L8.63323 41.126L7.84102 39.5416L6.87526 35.2891L4.28235 20.9972C4.28235 20.9972 3.39046 15.9 3.5338 11.6419C3.57462 10.4294 3.57182 9.90468 3.86231 8.72672C4.03881 8.011 4.22962 7.40334 4.4971 6.94903C4.72147 6.56792 5.2589 6.11111 5.2589 6.11111C5.2589 6.11111 10.9037 4.38082 15.5666 3.11639C20.2295 1.85195 19.3263 1.87045 21.7906 1.38778C22.7986 1.19034 23.3566 1.00929 24.3808 0.930652C25.1817 0.869156 26.4377 0.930652 26.4377 0.930652L41.5219 1.99718C41.5219 1.99718 43.3503 2.60705 44.1883 3.44467C44.702 3.95813 45.2549 4.96832 45.2549 4.96832L46.3214 11.8248L48.6757 27.9737C48.6757 27.9737 49.4412 31.9624 48.9335 34.7506C48.7848 35.567 48.4545 37.346 48.4545 37.346C48.4545 37.346 47.3184 39.9941 46.3214 41.536C44.9021 43.7312 41.9028 46.5641 41.9028 46.5641C41.9028 46.5641 38.0607 50.0371 35.4273 52.0493C34.0559 53.0971 31.8467 54.6395 31.8467 54.6395L30.787 54.8568ZM30.787 54.8568C30.787 54.8568 30.4403 54.9649 30.2153 55.0243C29.7724 55.1412 29.5155 55.171 29.0667 55.2627C28.6151 55.3549 27.9096 55.4953 27.9096 55.4953H26.5225L25.4051 55.11L21.7833 53.4147L15.8498 50.5249L8.93701 45.669L7.54438 44.1263L6.47782 42.6035L5.86839 41.536L5.2589 40.0886L4.4971 35.2891L3.12578 26.682L1.6929 17.1934C1.6929 17.1934 0.6531 12.6593 1.52597 9.99643C1.67568 9.5397 1.74904 9.27352 1.98305 8.85369" stroke="#F2F2F2"/>
<path d="M7.46593 9.60911L7.98423 9.02317L9.02598 8.53318L10.3321 8.08824L11.6382 7.71506L13.662 7.19835L16.1738 6.58117L19.4176 5.89223L21.3265 5.49035L22.476 5.28707L22.9191 5.19843L23.3623 5.12744H24.3685H30.3477L39.3912 5.39094L40.2066 5.53366L40.7075 5.70433L41.2016 5.92155L41.7427 6.19786L42.2838 6.57774L42.5562 6.82739L42.85 7.34572L45.5905 32.0321V34.3251V35.2962L45.5009 36.0283L45.3813 36.6408L45.217 37.4326L44.963 38.0601L42.8666 41.1206L36.6242 47.2074L31.872 51.0525L31.4655 51.3279L31.0065 51.4983L30.5868 51.577H30.036H29.472L28.8425 51.4983L23.1792 48.8203L17.5956 45.8367L16.3706 45.0562L14.853 43.9396L11.5576 40.2431L11.1999 39.712L10.8964 39.2025L10.6362 38.5846L10.4302 37.9992L10.2134 37.1103L9.99604 35.3904L8.2215 21.2258L7.65112 16.631L7.17297 12.5612V11.0288V10.2626L7.46593 9.60911Z" fill="#A3C717" stroke="#A3C717"/>
<path d="M25.73 27.537L26.1095 27.7935L26.4781 27.6727L26.9039 27.2203L27.6668 26.2712L28.5007 25.1889L29.4975 23.9082L31.1451 21.8388L33.0299 19.5717L33.7548 18.6755L34.5588 17.8978L35.0861 17.5815L35.5606 17.3574L35.8901 17.252H36.18H36.5096H36.8259L37.0895 17.3574L37.7881 17.7133L38.0649 17.8978L38.4207 18.28L38.7503 18.6755L38.9743 19.0972L39.1325 19.5717L39.1984 20.0198L39.1325 20.4811L38.9743 21.0083L38.7503 21.4564L36.325 24.5539L33.7548 27.8622L29.4127 33.3229L28.9819 33.764L28.6946 34L27.956 34.4103L27.638 34.5642L27.2765 34.6811L26.871 34.7871L26.2733 34.9199L25.9248 34.8104L25.4016 34.636L21.37 31.1583L20.4159 30.3069L19.7388 29.6811L19.4619 29.281L19.2977 28.7988L19.1849 28.3577V28.324V27.8961V27.6704L19.2977 27.3729L19.4619 26.9831L19.6773 26.6445L20.1184 26.2547L20.4159 26.0495L21.1135 25.629L21.6264 25.4853L22.2419 25.393H22.6932H23.1344L23.6371 25.629L23.9039 25.7726L24.3553 26.1727L25.3504 27.1575L25.73 27.537Z" fill="#866CAE" stroke="#866CAE"/>
<path d="M19.2079 29.0012V28.4458L19.3432 29.0695L19.608 29.4706L20.2701 30.1705L21.5451 31.3131L25.2528 34.529L25.4647 34.65L25.6766 34.7673L25.7891 34.8276L26.5305 34.8001L26.5975 34.8652L26.1991 34.9741L25.953 35.041C25.953 35.041 25.7865 35.09 25.6766 35.1013C25.5756 35.1117 25.5115 35.123 25.41 35.123H25.289H25.0858C25.0473 35.123 24.9771 35.1013 24.9771 35.1013L24.838 35.0609L24.6946 34.9741L20.8767 31.6931L20.212 31.0625L19.9734 30.8238L19.6836 30.4659L19.4535 30.0654L19.2916 29.5285L19.2079 29.0012Z" fill="#66429C" stroke="#66429C"/>
<path d="M1.69737 8.91733C1.92302 8.51894 2.4142 7.98957 2.4142 7.98957L3.76356 6.80891L5.29812 6.09131L4.01838 7.39795L3.85374 7.67578L3.78821 7.81087L3.7225 7.98957L3.66618 8.16757L3.60986 8.38816L3.55823 8.651C3.55823 8.651 3.43875 9.24986 3.40088 9.63854C3.34051 10.2581 3.40088 11.2326 3.40088 11.2326L3.346 12.8673C3.32457 13.5057 4.01838 19.2465 4.01838 19.2465C4.01838 19.2465 4.58697 24.0173 5.58417 29.6911C5.97251 31.9007 6.33329 34.2354 6.85743 36.4041C7.18203 37.7471 7.16776 38.3138 7.66871 39.4013C7.98731 40.093 8.12097 40.7461 8.50339 41.4047C9.02078 42.2956 9.38151 42.7568 10.0402 43.549C11.3288 45.099 12.2432 45.8176 13.8642 47.0157C15.9094 48.5273 19.5934 50.4271 19.5934 50.4271L26.9879 53.875L29.4107 54.6996L30.2462 54.8383L28.3218 55.3412C28.3218 55.3412 27.5119 55.5128 26.9879 55.4943C26.0968 55.4628 24.8011 54.8383 24.8011 54.8383L18.5251 51.8642C16.1004 50.5172 14.9961 49.9989 12.6525 48.3538C12.6525 48.3538 9.82852 46.5379 8.50339 45.1509C7.60773 44.2133 7.18786 43.6026 6.4978 42.5049C5.97113 41.667 5.73363 41.1615 5.29508 40.2743C4.84385 39.3615 4.76762 38.2995 4.53952 37.2999C4.05333 35.1693 3.70066 32.9656 3.346 30.5865C2.53478 25.1448 2.00609 20.0977 2.00609 20.0977L1.16208 13.4645C1.16208 13.4645 1.03904 11.9771 1.16208 11.0372C1.2729 10.1906 1.27657 9.66027 1.69737 8.91733Z" fill="#F2F2F2"/>
<path d="M3.346 30.5865C2.53478 25.1448 2.00609 20.0977 2.00609 20.0977L1.16208 13.4645C1.16208 13.4645 1.03904 11.9771 1.16208 11.0372C1.2729 10.1906 1.27657 9.66027 1.69737 8.91733C1.92302 8.51894 2.4142 7.98957 2.4142 7.98957L3.76356 6.80891L5.29812 6.09131L4.01838 7.39795L3.85374 7.67578L3.78821 7.81087L3.7225 7.98957L3.66618 8.16757L3.60986 8.38816L3.55823 8.651C3.55823 8.651 3.43875 9.24986 3.40088 9.63854C3.34051 10.2581 3.40088 11.2326 3.40088 11.2326C3.37945 11.8709 3.36743 12.2289 3.346 12.8673C3.32457 13.5057 4.01838 19.2465 4.01838 19.2465C4.01838 19.2465 4.58697 24.0173 5.58417 29.6911C5.97251 31.9007 6.33329 34.2354 6.85743 36.4041C7.18203 37.7471 7.16776 38.3137 7.66871 39.4013C7.98731 40.093 8.12097 40.7461 8.50339 41.4047C9.02078 42.2956 9.38151 42.7568 10.0402 43.549C11.3288 45.099 12.2432 45.8176 13.8642 47.0157C15.9094 48.5273 19.5934 50.4271 19.5934 50.4271L26.9879 53.875L29.4107 54.6996L30.2462 54.8383L28.3218 55.3412C28.3218 55.3412 27.5119 55.5128 26.9879 55.4943C26.0968 55.4628 24.8011 54.8383 24.8011 54.8383L18.5251 51.8642C16.1004 50.5172 14.9961 49.9989 12.6525 48.3538C12.6525 48.3538 9.82852 46.5379 8.50339 45.1509C7.60773 44.2133 7.18786 43.6026 6.4978 42.5049C5.97113 41.667 5.73363 41.1615 5.29508 40.2743C4.84385 39.3615 4.76762 38.2995 4.53952 37.2999M3.346 30.5865C3.70066 32.9656 4.05333 35.1693 4.53952 37.2999M3.346 30.5865L4.53952 37.2999" stroke="#F2F2F2"/>
</svg>
