<svg width="900" height="900" viewBox="0 0 900 900" fill="none" xmlns="http://www.w3.org/2000/svg">
<path d="M800.01 423.285C799.843 423.452 799.522 423.645 799.547 423.773C799.624 424.12 799.843 424.442 800.01 424.763C800.177 424.596 800.499 424.403 800.473 424.275C800.383 423.927 800.164 423.619 800.01 423.285ZM655.946 474.79C673.213 474.585 691.984 472.617 710.319 467.436C721.697 464.222 732.947 460.48 742.436 453.126C754.187 444.023 754.676 435.37 744.39 424.725C734.966 414.966 724.513 406.403 713.674 398.29C676.916 370.776 635.49 354.293 590.4 346.926C575.396 344.47 560.25 342.709 544.924 344.933C515.893 349.137 502.084 370.905 510.994 398.869C515.944 414.413 525.536 426.627 538.174 436.579C572.194 463.36 611.396 474.597 655.946 474.79ZM487.903 241.112C487.89 252.696 489.343 264.113 491.799 275.44C495.54 292.72 503.152 308.316 512.036 323.41C516.009 330.147 516.664 330.353 524.404 327.975C539.55 323.32 554.979 321.07 570.896 322.536C592.56 324.529 613.466 329.762 633.896 336.962C682.573 354.126 722.623 382.875 752.066 425.702C752.902 426.91 753.75 428.157 754.804 429.147C757.35 431.565 761.529 432.105 764.396 430.42C767.944 428.337 766.389 425.367 765.527 422.603C764.949 420.726 764.267 418.887 763.547 417.049C748.222 378.066 729.579 340.78 706.513 305.77C680.992 267.019 651.896 231.263 617.143 200.355C598.95 184.167 578.597 171.516 555.094 164.547C529.714 157.026 504.862 167.196 495.566 195.546C490.732 210.37 487.955 225.49 487.903 241.112ZM692.332 481.463C677.032 483.675 661.822 486.555 646.329 487.403C610.277 489.383 575.666 484.292 543.78 466.317C524.7 455.569 508.05 441.979 496.145 423.207C490.835 414.837 487.055 405.837 484.252 396.336C479.366 379.763 482.516 364.746 492.622 351.002C494.949 347.839 497.43 344.727 500.259 342.027C503.1 339.302 503.023 336.897 501.3 333.593C495.052 321.61 488.983 309.525 482.966 297.426C475.92 283.283 470.353 268.626 468.013 252.889C464.182 227.175 467.139 202.309 478.119 178.703C489.78 153.619 510.917 142.485 537.454 140.106C550.17 138.975 562.423 141.61 574.316 145.982C593.692 153.092 611.229 163.416 626.644 177.096C690.172 233.487 736.624 301.142 761.387 382.939C765.373 396.117 768.742 409.45 771.442 422.963C772.11 426.332 772.74 429.739 774.412 432.812C775.993 435.705 777.922 437.055 781.586 436.026C787.667 434.303 792.424 431.23 794.674 425.213C804.832 398.059 815.58 371.085 819.566 342.066C820.247 337.103 820.054 332.307 818.499 327.512C815.49 318.229 815.233 308.663 815.837 299.033C815.94 297.336 816.287 295.626 816.686 293.967C816.917 293.003 817.522 292.167 818.679 292.129C819.759 292.09 820.62 292.669 820.98 293.62C821.584 295.227 822.124 296.873 822.484 298.545C824.889 309.679 826.457 320.826 823.14 332.102C822.729 333.49 822.729 335.02 822.742 336.486C822.922 353.457 819.167 369.657 813.343 385.459C809.692 395.372 805.899 405.233 802.196 415.133C801.36 417.357 799.843 419.44 800.55 421.973C802.132 422.745 802.993 421.922 803.726 420.919C818.139 400.965 831.973 380.676 841.192 357.636C843.442 352.005 844.496 346.437 843.789 340.382C842.722 331.227 843.827 322.227 846.759 313.472C847.222 312.083 847.723 310.682 848.366 309.357C848.944 308.162 849.999 307.532 851.374 307.802C852.416 308.007 853.072 308.792 853.367 309.756C853.65 310.682 853.804 311.672 853.856 312.649C854.434 323.269 854.396 333.76 849.652 343.725C847.864 347.466 846.527 351.503 845.537 355.54C842.452 368.127 836.692 379.455 829.749 390.28C821.649 402.919 812.867 415.069 803.842 427.052C801.926 429.597 800.036 431.899 800.653 435.64C801.257 439.305 798.043 441.349 795.446 443.072C790.329 446.466 785.07 449.68 779.696 452.637C749.122 469.467 718.406 486.04 687.922 503.05C671.182 512.385 655.406 523.39 638.01 531.593C634.564 533.213 631.337 535.746 626.824 535.335C627.017 531.58 629.923 530.23 632.019 528.495C646.38 516.512 661.783 505.917 676.993 495.053C682.586 491.055 688.153 487.03 693.733 483.006C694.17 482.556 694.967 482.055 694.273 481.463C693.874 481.103 692.974 481.425 692.332 481.463Z" fill="#A3C717"/>
<path d="M591.852 496.956C593.215 499.54 591.467 501.764 590.785 503.976C573.942 558.156 557.009 612.31 540.089 666.451C537.865 673.548 537.839 673.548 530.639 673.561C525.972 673.574 521.292 673.574 516.625 673.561C507.651 673.535 509.322 673.895 506.956 666.734C499.525 644.363 492.222 621.94 484.855 599.555C479.866 584.397 474.839 569.264 469.748 553.836C466.521 555.391 466.521 558.361 465.724 560.727C453.959 595.891 442.285 631.094 430.559 666.271C427.885 674.294 429.454 673.497 420.479 673.561C415.311 673.6 410.129 673.278 404.999 673.651C400.705 673.96 399.008 672.134 397.825 668.238C391.486 647.32 384.891 626.478 378.372 605.611C367.906 572.08 357.441 538.561 347.001 505.03C346.281 502.715 345.162 500.478 345.329 497.251C354.831 497.251 364.345 496.853 373.795 497.393C379.529 497.727 382.666 501.957 384.235 507.421C387.732 519.7 391.371 531.953 394.984 544.205C401.296 565.638 407.648 587.071 413.974 608.504C414.501 610.304 414.565 612.335 416.442 613.595C418.615 611.037 419.078 607.784 420.094 604.814C430.906 572.941 441.616 541.056 452.429 509.183C456.299 497.778 468.282 493.021 479.159 498.396C483.235 500.414 485.086 504.027 486.449 508.116C493.289 528.623 500.194 549.104 507.085 569.586C511.392 582.391 515.712 595.184 520.045 607.977C520.662 609.803 521.421 611.577 522.244 613.711C524.275 611.834 524.468 609.674 525.059 607.694C534.766 574.96 544.486 542.238 554.142 509.491C554.978 506.65 555.865 503.86 557.511 501.378C559.954 499.836 562.679 500.376 565.315 500.337C574.277 500.208 583.238 499.926 591.852 496.956Z" fill="#66429C"/>
<path d="M80.4063 547.807C80.4063 550.263 80.3035 552.731 80.4321 555.187C80.6763 560.291 78.272 566.836 81.4735 570.14C84.9963 573.778 91.7078 571.284 97.0049 571.4C104.603 571.567 112.253 571.85 119.698 569.69C131.089 566.398 136.939 558.53 136.553 546.907C136.168 534.988 130.883 528.971 118.476 526.374C107.033 523.983 95.4363 525.616 83.9292 525.127C80.7406 524.998 80.3935 526.888 80.4063 529.357C80.4449 535.516 80.4192 541.661 80.4063 547.807ZM101.029 645.02C101.029 644.891 101.029 644.763 101.029 644.647C107.175 644.647 113.385 645.226 119.441 644.519C129.212 643.387 137.531 639.401 140.835 629.116C145.785 613.726 138.341 601.627 122.295 598.798C109.592 596.561 96.7735 598.168 84.0192 597.68C80.9206 597.564 80.3806 599.287 80.3806 601.846C80.4192 614.883 80.4706 627.92 80.3549 640.944C80.3292 644.274 81.7949 645.148 84.7906 645.071C90.2163 644.93 95.6292 645.02 101.029 645.02ZM148.819 582.123C151.391 583.498 154.039 584.771 156.533 586.276C168.118 593.296 174.315 603.658 175.061 617.146C176.436 642.166 163.836 660.834 140.153 669.178C131.719 672.148 122.976 673.46 114.105 673.524C93.7135 673.666 73.3092 673.601 52.9049 673.563C46.8749 673.55 46.7978 673.46 46.7849 667.456C46.7592 612.646 46.7592 557.836 46.7849 503.026C46.7849 497.176 46.8878 497.086 53.0206 497.086C72.4349 497.073 91.8492 497.06 111.263 497.201C121.395 497.278 131.308 498.886 140.835 502.524C156.585 508.528 166.446 519.496 169.056 536.377C171.756 553.901 166.716 568.417 151.943 578.986C150.966 579.693 150.066 580.516 149.153 581.326C149.012 581.454 148.973 581.75 148.819 582.123Z" fill="#66429C"/>
<path d="M219.082 592.576C235.244 592.576 251.328 592.576 267.425 592.576C270.974 592.576 270.447 590.532 269.894 588.128C267.052 575.798 257.294 568.816 243.755 569.562C230.204 570.308 220.677 578.999 219.082 592.576ZM217.861 615.706C217.064 635.738 230.962 649.598 250.698 648.582C260.071 648.093 268.261 644.468 276.207 639.813C282.699 636.008 286.878 636.702 291.237 641.781C293.319 644.198 295.081 646.898 297.177 649.302C299.195 651.603 299.002 653.429 296.919 655.615C293.332 659.382 289.539 662.866 284.988 665.386C266.217 675.788 246.442 678.23 225.909 671.943C211.368 667.495 200.272 658.315 193.664 644.57C183.365 623.15 181.899 600.985 191.195 578.896C206.984 541.405 250.698 537.573 274.522 551.691C288.344 559.881 295.749 572.493 298.771 587.883C299.761 592.936 300.301 598.079 300.095 603.286C299.735 612.633 295.287 615.282 287.765 615.166C267.117 614.845 246.468 615.038 225.807 615.089C223.171 615.076 220.432 614.536 217.861 615.706Z" fill="#66429C"/>
<path d="M614.954 592.574C631.476 592.574 647.38 592.548 663.271 592.6C666.537 592.612 666.923 590.8 666.319 588.28C664.261 579.845 659.543 573.674 651.057 570.884C634.471 565.42 619.454 574.008 614.954 592.574ZM651.739 615.035C640.437 615.035 629.136 614.971 617.834 615.074C613.296 615.112 613.141 615.382 613.874 619.69C614.286 622.107 614.839 624.511 615.571 626.851C620.341 642.022 631.45 649.544 647.367 648.58C654.876 648.13 661.78 645.828 668.311 642.19C670.664 640.878 673.004 639.502 675.46 638.41C679.78 636.481 683.676 637.445 686.826 640.891C688.806 643.064 690.529 645.481 692.316 647.821C696.044 652.694 695.993 652.668 691.557 657.335C685.476 663.7 678.121 668.084 669.893 670.861C656.637 675.335 643.009 676.762 629.226 673.895C613.347 670.591 600.246 662.581 592.159 648.31C579.237 625.514 577.72 601.445 588.276 577.531C603.961 541.968 645.554 538.072 668.967 550.647C685.463 559.505 693.434 574.188 695.826 592.252C696.34 596.122 696.379 600.108 696.224 604.017C695.89 612.31 693.1 614.997 684.923 615.061C673.853 615.1 662.796 615.035 651.739 615.035Z" fill="#66429C"/>
<path d="M744.452 492.391V501.173V664.87C744.452 665.603 744.465 666.348 744.452 667.081C744.375 673.458 744.375 673.497 737.946 673.548C731.556 673.6 725.166 673.613 718.776 673.548C712.9 673.484 712.888 673.433 712.81 667.261C712.772 663.571 712.798 659.894 712.798 656.204C712.798 604.338 712.785 552.473 712.81 500.62C712.81 491.453 711.949 492.455 721.18 492.404C728.766 492.365 736.352 492.391 744.452 492.391Z" fill="#66429C"/>
<path d="M800.354 583.432C800.354 611.204 800.367 638.988 800.341 666.759C800.341 673.497 800.289 673.522 793.411 673.561C787.509 673.599 781.608 673.587 775.719 673.561C768.687 673.522 768.686 673.509 768.661 666.142C768.661 665.409 768.661 664.664 768.661 663.931V502.445C768.661 500.967 768.635 499.488 768.674 498.022C768.802 492.532 768.802 492.468 774.498 492.404C781.132 492.339 787.766 492.339 794.401 492.404C800.264 492.455 800.341 492.519 800.341 498.627C800.367 526.899 800.354 555.159 800.354 583.432Z" fill="#66429C"/>
<path d="M591.85 496.955C583.223 499.925 574.262 500.208 565.274 500.349C562.639 500.388 559.9 499.848 557.47 501.391C550.334 499.385 542.864 499.989 535.613 498.639C516.057 495.013 497.787 488.289 481.292 477.052C471.61 470.456 463.626 462.202 457.905 451.942C452.106 441.528 449.457 430.483 452.543 418.642C454.986 409.256 460.617 402.198 469.502 396.039C470.286 403.213 469.797 409.295 468.139 414.99C463.189 432 468.409 445.861 480.302 457.933C495.64 473.516 514.694 482.002 535.69 486.721C550.797 490.115 566.239 491.439 581.436 494.268C584.959 494.911 588.79 494.499 591.85 496.955Z" fill="#A3C717"/>
<path d="M456.687 198.888C456.533 202.372 454.862 205.42 453.782 208.57C447.559 226.801 442.725 245.367 442.66 264.73C442.57 292.758 451.056 318.395 465.906 342.014C468.529 346.18 471.332 350.217 472.412 355.141C472.772 356.8 473.646 358.612 471.782 359.808C469.557 361.222 468.13 359.68 466.896 358.034C461.149 350.358 455.479 342.631 450.735 334.274C433.84 304.574 425.972 272.945 430.356 238.707C432.387 222.867 438.893 209.585 452.355 200.302C453.152 199.75 454 199.222 454.887 198.824C455.273 198.644 455.787 198.824 456.687 198.888Z" fill="#A3C717"/>
<path d="M330.939 675.399C320.075 674.872 311.936 665.885 312.309 654.854C312.695 643.629 321.965 635.221 333.202 635.915C343.809 636.558 352.411 646.278 351.665 656.744C350.906 667.544 341.585 675.914 330.939 675.399Z" fill="#66429C"/>
<path d="M610.815 733.911C610.815 739.298 610.802 744.672 610.815 750.06C610.815 751.834 610.957 753.608 613.258 753.865C626.784 755.421 637.301 749.918 638.445 736.007C639.641 721.414 632.531 713.802 617.989 713.931C617.012 713.944 616.035 713.995 615.058 713.97C611.921 713.88 610.725 715.461 610.789 718.482C610.879 723.625 610.815 728.768 610.815 733.911ZM604.181 734.644C604.181 727.778 604.309 720.925 604.117 714.06C604.027 710.845 604.747 709.032 608.359 708.737C615.469 708.158 622.554 707.721 629.522 709.714C637.751 712.067 642.958 717.428 645.041 725.772C649.309 742.898 639.949 756.977 622.515 759.278C618.169 759.844 613.708 759.407 609.311 759.6C605.634 759.754 603.975 758.43 604.129 754.495C604.374 747.887 604.194 741.265 604.181 734.644Z" fill="#A3C717"/>
<path d="M653.744 733.476C653.744 726.842 653.834 720.221 653.705 713.586C653.641 710.346 654.374 708.495 658.154 708.623C664.531 708.829 670.921 708.688 677.298 708.675C679.381 708.675 681.297 708.765 681.361 711.619C681.425 714.679 679.291 714.409 677.311 714.422C673.132 714.448 668.967 714.473 664.788 714.486C662.114 714.499 660.674 715.708 660.764 718.498C660.776 718.742 660.738 718.986 660.738 719.231C660.622 731.522 660.416 729.838 670.638 729.953C672.849 729.979 675.061 729.992 677.259 729.966C679.008 729.941 680.011 730.673 680.062 732.512C680.127 734.492 679.599 735.829 677.234 735.803C673.055 735.752 668.889 735.868 664.711 735.829C662.049 735.803 660.674 736.729 660.687 739.648C660.777 756.298 659.144 753.122 673.428 753.443C675.395 753.495 677.362 753.469 679.316 753.456C681.361 753.443 682.518 754.189 682.428 756.491C682.338 758.792 681.014 759.383 679.059 759.383C671.936 759.383 664.826 759.293 657.704 759.435C654.245 759.512 653.525 757.661 653.705 754.819C653.718 754.575 653.705 754.331 653.705 754.086C653.744 747.221 653.744 740.342 653.744 733.476Z" fill="#A3C717"/>
<path d="M582.104 737.124C581.076 730.464 578.157 722.196 575.11 717.684C573.722 724.562 570.237 730.554 569.44 737.355C572.745 738.422 575.715 737.831 578.62 737.959C579.829 738.011 581.076 737.998 582.104 737.124ZM596.402 758.492C590.269 759.623 590.372 759.585 588.353 754.661C586.887 751.086 587.183 746.149 583.802 744.182C580.292 742.138 575.637 743.758 571.51 743.423C568.27 743.166 566.522 744.426 565.763 747.654C565.03 750.739 563.77 753.709 562.819 756.756C561.945 759.559 559.759 759.546 557.47 759.379C555.966 759.264 555.297 758.428 555.645 756.923C555.876 755.972 556.21 755.046 556.519 754.121C561.096 740.646 565.725 727.211 570.212 713.711C571.215 710.676 572.243 708.504 576.152 708.568C579.649 708.632 580.754 710.394 581.693 713.196C586.45 727.378 591.297 741.521 596.119 755.676C596.44 756.602 596.826 757.502 596.402 758.492Z" fill="#A3C717"/>
<path d="M498.842 760.011C493.815 759.972 490.446 759.406 487.181 758.198C484.931 757.362 484.211 755.986 484.982 753.633C485.805 751.101 487.361 751.718 489.032 752.412C492.504 753.865 496.129 754.379 499.845 753.916C504.152 753.389 506.994 750.921 507.636 747.269C508.305 743.438 506.749 740.519 503.496 738.591C501.619 737.472 499.549 736.636 497.531 735.775C494.818 734.618 492.131 733.396 489.868 731.455C483.298 725.811 483.581 716.129 490.639 711.153C496.785 706.821 503.561 707.258 510.388 709.315C512.059 709.816 512.689 710.896 512.098 712.671C511.481 714.535 510.632 715.756 508.408 714.921C505.361 713.763 502.198 713.429 498.996 713.956C495.564 714.522 493.018 716.284 492.336 719.871C491.719 723.136 493.172 725.708 495.911 727.328C498.431 728.819 501.156 729.963 503.818 731.211C512.985 735.492 516.315 741.059 514.399 748.928C512.754 755.729 506.119 760.011 498.842 760.011Z" fill="#A3C717"/>
<path d="M406.322 730.593C408.533 730.581 410.744 730.606 412.84 729.771C417.597 727.893 419.937 723.381 418.716 718.508C417.43 713.429 411.439 710.742 404.072 711.771C398.414 712.555 401.037 716.913 400.523 719.845C400.227 721.503 400.433 723.265 400.472 724.988C400.626 730.581 400.639 730.581 406.322 730.593ZM400.484 745.045C400.484 745.778 400.484 746.523 400.484 747.256C400.497 756.603 401.834 757.632 411.246 755.729C413.187 755.33 415.052 754.829 416.71 753.685C420.734 750.869 422.174 745.958 420.31 741.316C418.124 735.852 410.629 732.522 403.313 734.283C398.337 735.479 401.256 739.915 400.51 742.859C400.33 743.528 400.484 744.299 400.484 745.045ZM415.733 731.828C421.159 735.196 424.707 738.359 425.042 743.926C425.453 750.638 422.162 755.961 415.784 758.185C410.564 760.011 405.152 759.779 399.752 759.483C397.219 759.342 396.499 757.85 396.499 755.562C396.524 741.329 396.563 727.096 396.473 712.863C396.447 709.996 397.862 708.942 400.369 708.646C404.522 708.171 408.7 707.888 412.814 708.839C423.524 711.321 426.546 721.298 419.063 729.488C418.42 730.195 417.469 730.619 415.733 731.828Z" fill="#A3C717"/>
<path d="M750.894 743.119C750.816 737.397 748.682 733.656 744.426 731.753C740.042 729.799 734.449 730.93 730.939 734.479C727.301 738.156 726.889 744.43 729.898 750.203C732.251 754.716 736.686 757.287 741.225 756.644C744.864 756.13 747.461 754.099 749.261 750.91C750.624 748.467 750.842 745.819 750.894 743.119ZM729.808 730.03C732.212 730.467 733.806 728.551 735.825 727.973C745.365 725.247 753.799 730.814 754.879 740.701C756.036 751.206 749.736 759.691 740.505 760.013C734.912 760.206 730.502 757.981 727.404 753.34C717.195 738.027 727.558 713.406 745.558 710.14C746.509 709.96 747.499 709.883 748.464 709.883C749.209 709.883 749.878 710.204 750.109 711.014C750.456 712.171 749.852 712.969 748.849 713.239C747.204 713.676 745.455 713.779 743.809 714.229C735.992 716.363 731.004 721.969 729.808 730.03Z" fill="#A3C717"/>
<path d="M787.32 734.864C787.448 729.4 786.741 724.077 784.453 719.05C782.794 715.398 780.004 713.033 775.954 712.955C772.148 712.891 769.333 715.193 767.841 718.458C762.891 729.297 762.673 740.328 767.7 751.205C769.191 754.433 771.891 756.734 775.8 756.695C779.991 756.67 782.627 754.188 784.285 750.64C786.638 745.664 787.423 740.341 787.32 734.864ZM760.281 734.645C760.423 728.963 760.963 723.344 763.727 718.214C766.62 712.827 770.824 709.381 777.24 709.754C783.424 710.114 787.075 714.023 788.94 719.5C792.463 729.85 792.347 740.328 788.515 750.563C786.381 756.284 782.164 759.871 775.723 760.025C770.04 760.167 765.668 756.875 763.007 750.537C760.873 745.458 760.371 740.084 760.281 734.645Z" fill="#A3C717"/>
<path d="M530.354 731.2C530.354 737.102 530.483 742.99 530.303 748.879C530.2 752.466 531.769 753.61 535.15 753.482C539.56 753.314 543.996 753.495 548.418 753.456C550.488 753.43 551.671 754.099 551.646 756.387C551.62 758.547 550.681 759.447 548.509 759.422C541.386 759.357 534.263 759.344 527.14 759.422C524.183 759.46 523.386 757.969 523.399 755.295C523.45 741.049 523.437 726.803 523.411 712.557C523.411 710.295 523.951 708.79 526.613 708.7C529.596 708.597 530.406 710.102 530.367 712.776C530.277 718.922 530.341 725.055 530.341 731.2H530.354Z" fill="#A3C717"/>
<path d="M707.475 732.55C708.761 733.45 709.995 734.196 711.075 735.109C719.021 741.807 717.632 753.79 708.272 758.226C702.397 761.016 696.367 760.643 690.491 757.982C689.347 757.467 688.331 756.567 689.128 755.14C689.668 754.176 690.709 754.24 691.699 754.626C694.219 755.603 696.765 756.426 699.517 756.503C706.344 756.696 710.998 753.379 711.937 747.593C712.927 741.435 709.211 736.575 702.448 734.877C700.018 734.26 697.061 735.366 695.107 733.257C695.454 731.226 696.701 731.226 697.909 731.046C699.838 730.763 701.844 730.635 703.657 729.979C708.748 728.127 711.191 723.627 709.828 719.025C708.517 714.615 704.647 712.403 699.311 713.355C697.177 713.74 695.171 714.769 693.101 715.476C692.381 715.72 691.558 715.759 691.108 715.09C690.491 714.177 690.735 713.29 691.609 712.557C696.071 708.803 705.714 708.662 710.304 712.313C714.727 715.836 715.665 722.779 712.168 727.536C710.869 729.323 709.172 730.776 707.475 732.55Z" fill="#A3C717"/>
<path d="M447.144 732.604C451.592 726.909 454.061 720.442 457.944 714.874C459.564 712.547 460.104 707.289 464.038 709.526C466.031 710.657 462.367 714.399 461.055 716.829C458.497 721.573 455.822 726.292 452.762 730.714C449.548 735.394 448.237 740.319 448.648 745.937C448.918 749.589 448.7 753.292 448.61 756.969C448.571 758.319 447.89 759.399 446.347 759.142C445.254 758.962 444.868 757.971 444.868 756.93C444.842 752.52 444.637 748.084 444.881 743.687C445.125 739.342 444.02 735.562 441.782 731.846C438.002 725.546 434.531 719.053 430.982 712.599C430.352 711.467 428.835 709.963 430.88 708.973C432.461 708.189 433.67 709.552 434.428 710.837C435.932 713.37 437.192 716.032 438.722 718.552C441.474 723.116 443.312 728.246 447.144 732.604Z" fill="#A3C717"/>
<path d="M535.025 238.799C534.87 217.957 551.52 204.534 570.163 208.687C574.779 209.716 579.163 211.349 582.982 214.049C614.752 236.587 640.967 263.921 656.73 300.191C658.98 305.373 660.845 310.683 662.516 316.083C663.699 319.914 664.007 323.797 664.007 327.719C664.007 333.569 663.172 334.096 657.527 331.781C638.435 323.939 618.982 317.266 598.629 313.434C588.009 311.441 577.286 310.079 566.486 309.873C556.432 309.68 551.443 305.244 549.27 296.309C545.104 279.17 539.139 262.481 535.899 245.086C535.423 242.45 535.166 239.763 535.025 238.799Z" fill="#A3C717"/>
<path d="M600.865 377.528C626.014 377.399 649.375 383.892 670.77 397.212C678.176 401.815 684.578 407.446 688.924 415.161C695.841 427.439 692.897 438.805 680.901 446.134C674.678 449.939 667.954 452.164 660.638 451.919C632.455 450.968 604.941 446.661 578.751 435.578C571.77 432.621 565.984 428.301 561.291 422.438C550.915 409.478 553.204 394.216 566.923 384.766C573.377 380.331 580.693 378.312 588.343 377.592C592.483 377.206 596.687 377.528 600.865 377.528Z" fill="#A3C717"/>
</svg>
