<svg width="512" height="512" viewBox="0 0 512 512" fill="none" xmlns="http://www.w3.org/2000/svg">
<rect width="512" height="512" fill="white"/>
<path d="M415.45 231.328C415.374 231.404 415.228 231.492 415.239 231.551C415.275 231.709 415.374 231.855 415.45 232.002C415.526 231.926 415.673 231.838 415.661 231.779C415.62 231.621 415.521 231.48 415.45 231.328ZM349.821 254.792C357.687 254.698 366.239 253.802 374.591 251.442C379.774 249.977 384.899 248.273 389.222 244.923C394.575 240.776 394.798 236.834 390.112 231.984C385.819 227.539 381.057 223.638 376.12 219.942C359.374 207.408 340.502 199.899 319.961 196.543C313.126 195.424 306.226 194.621 299.245 195.635C286.019 197.55 279.729 207.466 283.788 220.205C286.043 227.287 290.412 232.851 296.17 237.384C311.668 249.585 329.526 254.704 349.821 254.792ZM273.268 148.338C273.262 153.616 273.924 158.817 275.043 163.977C276.747 171.849 280.215 178.954 284.262 185.83C286.072 188.899 286.371 188.993 289.897 187.909C296.796 185.789 303.825 184.764 311.076 185.432C320.945 186.339 330.469 188.723 339.776 192.003C361.951 199.823 380.196 212.919 393.609 232.429C393.99 232.98 394.376 233.548 394.857 233.999C396.016 235.1 397.92 235.346 399.226 234.579C400.843 233.63 400.134 232.277 399.741 231.018C399.478 230.163 399.167 229.325 398.839 228.487C391.858 210.729 383.365 193.743 372.857 177.794C361.231 160.14 347.976 143.852 332.144 129.771C323.856 122.397 314.584 116.634 303.878 113.459C292.316 110.033 280.994 114.666 276.759 127.581C274.557 134.334 273.292 141.222 273.268 148.338ZM366.397 257.832C359.427 258.839 352.498 260.151 345.44 260.538C329.016 261.44 313.249 259.12 298.723 250.932C290.031 246.035 282.446 239.844 277.023 231.293C274.604 227.48 272.882 223.38 271.605 219.052C269.379 211.502 270.814 204.661 275.418 198.399C276.478 196.958 277.608 195.541 278.897 194.311C280.191 193.069 280.156 191.974 279.371 190.469C276.525 185.01 273.76 179.504 271.019 173.993C267.809 167.55 265.273 160.873 264.207 153.703C262.462 141.989 263.809 130.661 268.811 119.908C274.123 108.48 283.752 103.408 295.842 102.325C301.634 101.809 307.216 103.01 312.634 105.001C321.461 108.24 329.45 112.944 336.473 119.176C365.413 144.865 386.575 175.685 397.855 212.948C399.671 218.952 401.206 225.026 402.436 231.182C402.74 232.716 403.027 234.268 403.789 235.668C404.509 236.986 405.388 237.601 407.057 237.133C409.827 236.348 411.995 234.948 413.02 232.207C417.647 219.836 422.543 207.548 424.359 194.329C424.669 192.068 424.582 189.883 423.873 187.698C422.502 183.469 422.385 179.112 422.66 174.725C422.707 173.952 422.865 173.173 423.047 172.417C423.152 171.978 423.428 171.597 423.955 171.579C424.447 171.562 424.839 171.825 425.003 172.259C425.279 172.991 425.525 173.741 425.689 174.502C426.784 179.574 427.498 184.653 425.987 189.789C425.8 190.422 425.8 191.119 425.806 191.787C425.888 199.518 424.177 206.898 421.524 214.096C419.861 218.612 418.133 223.105 416.446 227.615C416.065 228.628 415.374 229.577 415.696 230.731C416.417 231.082 416.809 230.707 417.143 230.25C423.709 221.16 430.011 211.918 434.211 201.422C435.236 198.856 435.716 196.32 435.394 193.561C434.908 189.391 435.411 185.291 436.747 181.302C436.958 180.67 437.186 180.031 437.479 179.428C437.743 178.883 438.223 178.596 438.85 178.719C439.324 178.813 439.623 179.17 439.757 179.61C439.886 180.031 439.957 180.482 439.98 180.927C440.244 185.765 440.226 190.545 438.065 195.084C437.251 196.789 436.641 198.628 436.19 200.467C434.785 206.201 432.161 211.361 428.998 216.293C425.308 222.05 421.307 227.585 417.196 233.044C416.323 234.204 415.462 235.252 415.743 236.957C416.018 238.626 414.554 239.557 413.371 240.342C411.04 241.889 408.644 243.353 406.196 244.7C392.268 252.367 378.275 259.917 364.388 267.666C356.762 271.918 349.575 276.932 341.65 280.669C340.081 281.407 338.61 282.561 336.555 282.373C336.642 280.663 337.966 280.048 338.921 279.257C345.463 273.798 352.48 268.972 359.409 264.023C361.957 262.201 364.493 260.368 367.035 258.535C367.234 258.33 367.597 258.101 367.281 257.832C367.1 257.668 366.69 257.814 366.397 257.832Z" fill="#A3C717"/>
<path d="M320.621 264.889C321.242 266.066 320.445 267.08 320.135 268.087C312.462 292.769 304.748 317.439 297.04 342.104C296.027 345.337 296.015 345.337 292.735 345.343C290.609 345.348 288.477 345.348 286.351 345.343C282.263 345.331 283.024 345.495 281.946 342.232C278.561 332.041 275.234 321.826 271.878 311.629C269.605 304.723 267.315 297.83 264.996 290.801C263.526 291.51 263.526 292.863 263.163 293.94C257.803 309.96 252.485 325.997 247.143 342.022C245.925 345.677 246.64 345.313 242.551 345.343C240.197 345.36 237.836 345.214 235.499 345.384C233.543 345.524 232.77 344.692 232.231 342.918C229.343 333.388 226.339 323.894 223.369 314.388C218.601 299.112 213.834 283.843 209.078 268.567C208.75 267.513 208.24 266.494 208.316 265.024C212.645 265.024 216.979 264.842 221.284 265.088C223.896 265.24 225.325 267.167 226.04 269.657C227.633 275.25 229.291 280.832 230.937 286.414C233.812 296.178 236.706 305.942 239.588 315.705C239.828 316.525 239.857 317.451 240.712 318.025C241.702 316.859 241.913 315.377 242.376 314.025C247.301 299.505 252.18 284.979 257.106 270.459C258.869 265.264 264.328 263.097 269.283 265.545C271.14 266.465 271.983 268.11 272.604 269.973C275.72 279.315 278.866 288.646 282.005 297.976C283.967 303.81 285.935 309.637 287.909 315.465C288.19 316.297 288.536 317.105 288.911 318.078C289.836 317.222 289.924 316.238 290.193 315.336C294.615 300.424 299.043 285.518 303.442 270.6C303.823 269.305 304.227 268.034 304.977 266.904C306.09 266.201 307.331 266.447 308.532 266.429C312.614 266.371 316.697 266.242 320.621 264.889Z" fill="#66429C"/>
<path d="M87.6299 288.055C87.6299 289.174 87.583 290.298 87.6416 291.417C87.7529 293.742 86.6576 296.724 88.116 298.229C89.7209 299.887 92.7783 298.75 95.1915 298.803C98.653 298.879 102.138 299.008 105.529 298.024C110.719 296.525 113.384 292.94 113.208 287.645C113.032 282.216 110.625 279.474 104.973 278.291C99.76 277.202 94.4769 277.946 89.2348 277.723C87.7822 277.665 87.624 278.526 87.6299 279.65C87.6475 282.456 87.6358 285.255 87.6299 288.055ZM97.0248 332.341C97.0248 332.282 97.0248 332.224 97.0248 332.171C99.8245 332.171 102.653 332.435 105.412 332.113C109.864 331.597 113.653 329.781 115.158 325.096C117.413 318.085 114.022 312.573 106.712 311.285C100.926 310.265 95.086 310.998 89.2758 310.775C87.8642 310.722 87.6182 311.507 87.6182 312.673C87.6358 318.612 87.6592 324.551 87.6065 330.484C87.5948 332.001 88.2625 332.4 89.6272 332.364C92.0989 332.3 94.5648 332.341 97.0248 332.341ZM118.796 303.688C119.967 304.315 121.174 304.894 122.31 305.58C127.587 308.778 130.41 313.499 130.75 319.643C131.377 331.041 125.637 339.545 114.848 343.347C111.006 344.7 107.023 345.297 102.981 345.326C93.692 345.391 84.3968 345.361 75.1015 345.344C72.3545 345.338 72.3193 345.297 72.3135 342.562C72.3018 317.593 72.3018 292.624 72.3135 267.655C72.3135 264.99 72.3603 264.949 75.1542 264.949C83.9985 264.943 92.8428 264.937 101.687 265.001C106.302 265.037 110.818 265.769 115.158 267.426C122.333 270.162 126.826 275.158 128.015 282.848C129.245 290.831 126.949 297.444 120.219 302.259C119.774 302.581 119.364 302.956 118.948 303.325C118.884 303.383 118.866 303.518 118.796 303.688Z" fill="#66429C"/>
<path d="M150.804 308.45C158.167 308.45 165.494 308.45 172.827 308.45C174.444 308.45 174.203 307.518 173.952 306.423C172.657 300.806 168.212 297.626 162.044 297.965C155.871 298.305 151.53 302.264 150.804 308.45ZM150.248 318.987C149.885 328.112 156.216 334.426 165.207 333.963C169.477 333.741 173.208 332.089 176.827 329.969C179.785 328.235 181.689 328.551 183.674 330.865C184.623 331.966 185.426 333.196 186.38 334.291C187.3 335.34 187.212 336.171 186.263 337.167C184.629 338.883 182.901 340.471 180.828 341.619C172.276 346.357 163.268 347.47 153.914 344.606C147.29 342.579 142.235 338.397 139.225 332.136C134.533 322.378 133.865 312.28 138.1 302.218C145.293 285.138 165.207 283.393 176.06 289.824C182.357 293.555 185.73 299.301 187.107 306.312C187.558 308.614 187.804 310.956 187.71 313.329C187.546 317.587 185.519 318.793 182.093 318.741C172.686 318.594 163.28 318.682 153.867 318.705C152.667 318.7 151.419 318.454 150.248 318.987Z" fill="#66429C"/>
<path d="M331.145 308.45C338.672 308.45 345.917 308.438 353.156 308.462C354.644 308.468 354.82 307.642 354.545 306.494C353.607 302.651 351.458 299.84 347.592 298.569C340.036 296.08 333.195 299.992 331.145 308.45ZM347.903 318.682C342.754 318.682 337.606 318.653 332.457 318.7C330.39 318.718 330.319 318.841 330.653 320.803C330.841 321.904 331.093 322.999 331.426 324.065C333.599 330.977 338.66 334.403 345.911 333.964C349.332 333.759 352.477 332.71 355.452 331.053C356.524 330.455 357.59 329.829 358.709 329.331C360.677 328.452 362.452 328.891 363.887 330.461C364.789 331.451 365.574 332.552 366.388 333.618C368.086 335.838 368.063 335.826 366.042 337.953C363.272 340.852 359.921 342.849 356.173 344.114C350.134 346.153 343.926 346.803 337.647 345.497C330.413 343.991 324.445 340.342 320.761 333.841C314.874 323.456 314.183 312.491 318.992 301.597C326.137 285.396 345.085 283.622 355.751 289.35C363.266 293.385 366.897 300.074 367.987 308.304C368.221 310.067 368.239 311.882 368.168 313.663C368.016 317.441 366.745 318.665 363.02 318.694C357.977 318.712 352.94 318.682 347.903 318.682Z" fill="#66429C"/>
<path d="M390.139 262.81V266.811V341.384C390.139 341.718 390.145 342.058 390.139 342.391C390.104 345.297 390.104 345.314 387.175 345.338C384.264 345.361 381.353 345.367 378.442 345.338C375.766 345.308 375.76 345.285 375.725 342.473C375.707 340.792 375.719 339.117 375.719 337.436C375.719 313.809 375.713 290.181 375.725 266.559C375.725 262.383 375.332 262.84 379.538 262.816C382.993 262.799 386.449 262.81 390.139 262.81Z" fill="#66429C"/>
<path d="M415.606 304.285C415.606 316.937 415.612 329.594 415.6 342.246C415.6 345.315 415.576 345.326 412.443 345.344C409.754 345.362 407.066 345.356 404.383 345.344C401.18 345.326 401.18 345.321 401.168 341.964C401.168 341.631 401.168 341.291 401.168 340.957V267.391C401.168 266.718 401.156 266.044 401.174 265.376C401.232 262.875 401.232 262.846 403.827 262.817C406.849 262.788 409.872 262.788 412.894 262.817C415.565 262.84 415.6 262.87 415.6 265.652C415.612 278.532 415.606 291.406 415.606 304.285Z" fill="#66429C"/>
<path d="M320.621 264.889C316.691 266.242 312.609 266.371 308.514 266.435C307.314 266.453 306.066 266.207 304.959 266.909C301.708 265.996 298.305 266.271 295.002 265.656C286.093 264.004 277.77 260.941 270.256 255.822C265.845 252.817 262.208 249.057 259.601 244.383C256.96 239.639 255.753 234.607 257.159 229.213C258.272 224.937 260.837 221.722 264.885 218.916C265.242 222.184 265.019 224.955 264.264 227.549C262.009 235.298 264.387 241.612 269.805 247.112C276.792 254.211 285.472 258.077 295.037 260.226C301.919 261.773 308.954 262.376 315.877 263.665C317.482 263.957 319.227 263.77 320.621 264.889Z" fill="#A3C717"/>
<path d="M259.044 129.104C258.974 130.691 258.212 132.079 257.72 133.514C254.885 141.82 252.683 150.277 252.654 159.098C252.613 171.867 256.479 183.546 263.244 194.305C264.439 196.203 265.715 198.042 266.207 200.286C266.371 201.041 266.77 201.867 265.92 202.412C264.907 203.056 264.257 202.353 263.695 201.603C261.077 198.107 258.494 194.587 256.332 190.779C248.636 177.249 245.051 162.841 247.049 147.243C247.974 140.027 250.938 133.977 257.07 129.748C257.433 129.496 257.82 129.256 258.224 129.075C258.4 128.993 258.634 129.075 259.044 129.104Z" fill="#A3C717"/>
<path d="M201.762 346.181C196.813 345.941 193.105 341.847 193.275 336.822C193.451 331.708 197.674 327.878 202.793 328.194C207.625 328.487 211.544 332.915 211.204 337.683C210.858 342.603 206.612 346.416 201.762 346.181Z" fill="#66429C"/>
<path d="M329.262 372.837C329.262 375.291 329.256 377.739 329.262 380.193C329.262 381.001 329.326 381.81 330.375 381.927C336.536 382.636 341.328 380.129 341.849 373.791C342.394 367.143 339.155 363.676 332.53 363.735C332.085 363.74 331.64 363.764 331.195 363.752C329.766 363.711 329.221 364.431 329.25 365.808C329.291 368.151 329.262 370.494 329.262 372.837ZM326.24 373.17C326.24 370.043 326.298 366.921 326.21 363.793C326.169 362.329 326.497 361.503 328.143 361.368C331.382 361.105 334.609 360.905 337.784 361.813C341.533 362.885 343.905 365.328 344.854 369.129C346.798 376.931 342.534 383.344 334.592 384.393C332.612 384.65 330.58 384.451 328.577 384.539C326.901 384.609 326.146 384.006 326.216 382.214C326.327 379.203 326.245 376.187 326.24 373.17Z" fill="#A3C717"/>
<path d="M348.818 372.637C348.818 369.615 348.859 366.598 348.801 363.576C348.771 362.1 349.105 361.257 350.827 361.315C353.732 361.409 356.643 361.345 359.548 361.339C360.497 361.339 361.37 361.38 361.399 362.68C361.429 364.074 360.456 363.951 359.554 363.957C357.651 363.969 355.753 363.98 353.849 363.986C352.631 363.992 351.975 364.543 352.016 365.814C352.022 365.925 352.004 366.036 352.004 366.148C351.952 371.747 351.858 370.98 356.514 371.032C357.522 371.044 358.529 371.05 359.531 371.038C360.327 371.026 360.784 371.36 360.808 372.198C360.837 373.1 360.597 373.709 359.519 373.697C357.616 373.674 355.718 373.727 353.814 373.709C352.602 373.697 351.975 374.119 351.981 375.449C352.022 383.034 351.278 381.587 357.786 381.733C358.682 381.757 359.578 381.745 360.468 381.739C361.399 381.733 361.926 382.073 361.885 383.121C361.844 384.17 361.241 384.439 360.351 384.439C357.106 384.439 353.867 384.398 350.622 384.463C349.047 384.498 348.719 383.654 348.801 382.36C348.806 382.249 348.801 382.137 348.801 382.026C348.818 378.898 348.818 375.765 348.818 372.637Z" fill="#A3C717"/>
<path d="M316.181 374.3C315.712 371.266 314.383 367.5 312.995 365.444C312.362 368.578 310.775 371.307 310.412 374.406C311.917 374.892 313.27 374.622 314.594 374.681C315.144 374.704 315.712 374.699 316.181 374.3ZM322.694 384.035C319.9 384.55 319.947 384.533 319.027 382.29C318.36 380.661 318.494 378.412 316.954 377.516C315.355 376.585 313.235 377.323 311.355 377.17C309.879 377.053 309.082 377.627 308.736 379.097C308.403 380.503 307.829 381.856 307.395 383.244C306.997 384.521 306.001 384.515 304.959 384.439C304.273 384.386 303.969 384.006 304.127 383.32C304.232 382.887 304.385 382.465 304.525 382.044C306.61 375.905 308.719 369.785 310.763 363.635C311.22 362.252 311.688 361.262 313.469 361.292C315.062 361.321 315.566 362.123 315.993 363.4C318.161 369.861 320.369 376.304 322.565 382.752C322.712 383.174 322.887 383.584 322.694 384.035Z" fill="#A3C717"/>
<path d="M278.251 384.726C275.961 384.709 274.426 384.451 272.938 383.9C271.913 383.52 271.585 382.893 271.937 381.821C272.312 380.667 273.02 380.948 273.782 381.265C275.363 381.927 277.015 382.161 278.708 381.95C280.67 381.71 281.964 380.585 282.257 378.922C282.562 377.176 281.853 375.847 280.371 374.968C279.516 374.459 278.573 374.078 277.653 373.686C276.418 373.158 275.193 372.602 274.163 371.718C271.17 369.146 271.298 364.736 274.514 362.469C277.314 360.495 280.4 360.694 283.511 361.632C284.272 361.86 284.559 362.352 284.29 363.16C284.008 364.01 283.622 364.566 282.609 364.185C281.22 363.658 279.78 363.506 278.321 363.746C276.757 364.004 275.598 364.806 275.287 366.44C275.006 367.928 275.668 369.099 276.915 369.837C278.063 370.517 279.305 371.038 280.518 371.606C284.694 373.557 286.211 376.093 285.338 379.677C284.588 382.776 281.566 384.726 278.251 384.726Z" fill="#A3C717"/>
<path d="M236.104 371.325C237.111 371.319 238.119 371.331 239.073 370.95C241.241 370.095 242.307 368.039 241.75 365.82C241.164 363.506 238.435 362.282 235.079 362.75C232.502 363.108 233.697 365.093 233.462 366.429C233.328 367.184 233.421 367.987 233.439 368.772C233.509 371.319 233.515 371.319 236.104 371.325ZM233.445 377.909C233.445 378.242 233.445 378.582 233.445 378.916C233.451 383.174 234.06 383.643 238.347 382.776C239.232 382.594 240.081 382.366 240.836 381.845C242.67 380.562 243.326 378.325 242.476 376.21C241.481 373.721 238.066 372.204 234.733 373.006C232.467 373.551 233.796 375.572 233.456 376.913C233.374 377.218 233.445 377.569 233.445 377.909ZM240.391 371.888C242.863 373.422 244.48 374.863 244.632 377.399C244.819 380.456 243.32 382.881 240.415 383.895C238.037 384.726 235.571 384.621 233.111 384.486C231.957 384.422 231.629 383.742 231.629 382.7C231.641 376.216 231.658 369.732 231.617 363.248C231.606 361.942 232.25 361.462 233.392 361.327C235.284 361.11 237.187 360.982 239.062 361.415C243.941 362.545 245.317 367.091 241.908 370.822C241.615 371.144 241.182 371.337 240.391 371.888Z" fill="#A3C717"/>
<path d="M393.074 377.029C393.038 374.423 392.066 372.719 390.127 371.852C388.13 370.961 385.582 371.477 383.983 373.093C382.326 374.769 382.138 377.627 383.509 380.257C384.581 382.313 386.601 383.484 388.669 383.191C390.327 382.957 391.51 382.031 392.33 380.579C392.951 379.466 393.05 378.259 393.074 377.029ZM383.468 371.067C384.563 371.266 385.289 370.393 386.209 370.13C390.555 368.888 394.397 371.424 394.889 375.928C395.416 380.714 392.546 384.579 388.341 384.726C385.793 384.814 383.784 383.8 382.373 381.686C377.722 374.71 382.443 363.494 390.643 362.006C391.076 361.924 391.527 361.889 391.967 361.889C392.306 361.889 392.611 362.035 392.716 362.404C392.874 362.931 392.599 363.294 392.142 363.417C391.393 363.617 390.596 363.663 389.846 363.868C386.285 364.841 384.013 367.394 383.468 371.067Z" fill="#A3C717"/>
<path d="M409.669 373.27C409.728 370.781 409.406 368.356 408.363 366.066C407.607 364.402 406.336 363.324 404.491 363.289C402.758 363.26 401.475 364.308 400.796 365.796C398.541 370.734 398.441 375.759 400.731 380.714C401.411 382.184 402.641 383.233 404.421 383.215C406.331 383.204 407.531 382.073 408.287 380.457C409.359 378.19 409.716 375.765 409.669 373.27ZM397.352 373.17C397.416 370.581 397.662 368.022 398.921 365.685C400.239 363.231 402.154 361.661 405.077 361.831C407.894 361.995 409.558 363.775 410.407 366.271C412.012 370.986 411.959 375.759 410.214 380.421C409.242 383.028 407.32 384.662 404.386 384.732C401.797 384.797 399.806 383.297 398.593 380.41C397.621 378.096 397.393 375.648 397.352 373.17Z" fill="#A3C717"/>
<path d="M292.606 371.6C292.606 374.288 292.665 376.971 292.583 379.653C292.536 381.288 293.251 381.809 294.791 381.75C296.8 381.674 298.821 381.756 300.836 381.739C301.779 381.727 302.317 382.031 302.306 383.074C302.294 384.058 301.866 384.468 300.877 384.456C297.632 384.427 294.387 384.421 291.142 384.456C289.795 384.474 289.432 383.794 289.438 382.576C289.461 376.086 289.455 369.597 289.443 363.107C289.443 362.076 289.689 361.391 290.902 361.35C292.261 361.303 292.63 361.988 292.612 363.207C292.571 366.006 292.6 368.8 292.6 371.6H292.606Z" fill="#A3C717"/>
<path d="M373.296 372.217C373.882 372.627 374.444 372.966 374.936 373.382C378.556 376.434 377.923 381.893 373.659 383.913C370.983 385.184 368.236 385.014 365.559 383.802C365.038 383.568 364.575 383.158 364.938 382.508C365.184 382.068 365.659 382.098 366.11 382.273C367.258 382.718 368.417 383.093 369.671 383.128C372.781 383.216 374.901 381.705 375.329 379.069C375.78 376.264 374.087 374.05 371.006 373.277C369.899 372.996 368.552 373.499 367.662 372.539C367.82 371.613 368.388 371.613 368.939 371.531C369.817 371.402 370.731 371.344 371.557 371.045C373.876 370.202 374.989 368.152 374.368 366.055C373.771 364.046 372.008 363.038 369.577 363.472C368.605 363.648 367.691 364.116 366.748 364.438C366.42 364.55 366.045 364.567 365.84 364.263C365.559 363.847 365.67 363.443 366.069 363.109C368.101 361.398 372.494 361.334 374.585 362.997C376.6 364.602 377.027 367.765 375.434 369.932C374.843 370.746 374.069 371.408 373.296 372.217Z" fill="#A3C717"/>
<path d="M254.7 372.24C256.726 369.645 257.851 366.699 259.62 364.163C260.358 363.103 260.604 360.707 262.396 361.726C263.304 362.242 261.635 363.946 261.037 365.053C259.872 367.214 258.653 369.364 257.259 371.379C255.795 373.511 255.198 375.754 255.385 378.314C255.508 379.977 255.408 381.664 255.367 383.339C255.35 383.954 255.039 384.446 254.337 384.329C253.839 384.247 253.663 383.796 253.663 383.321C253.651 381.312 253.558 379.292 253.669 377.289C253.78 375.309 253.276 373.587 252.257 371.894C250.535 369.024 248.954 366.066 247.337 363.126C247.05 362.611 246.359 361.925 247.29 361.474C248.011 361.117 248.561 361.738 248.907 362.324C249.592 363.477 250.166 364.69 250.863 365.838C252.117 367.917 252.954 370.254 254.7 372.24Z" fill="#A3C717"/>
<path d="M294.731 147.283C294.661 137.789 302.246 131.674 310.739 133.566C312.841 134.035 314.839 134.778 316.578 136.008C331.051 146.276 342.994 158.728 350.175 175.251C351.2 177.612 352.049 180.031 352.81 182.491C353.349 184.236 353.49 186.005 353.49 187.791C353.49 190.456 353.109 190.697 350.538 189.642C341.84 186.069 332.978 183.03 323.706 181.284C318.868 180.376 313.983 179.755 309.063 179.662C304.483 179.574 302.211 177.553 301.221 173.482C299.323 165.675 296.605 158.072 295.129 150.148C294.913 148.947 294.795 147.723 294.731 147.283Z" fill="#A3C717"/>
<path d="M324.726 210.483C336.183 210.424 346.825 213.382 356.572 219.45C359.945 221.547 362.862 224.113 364.842 227.627C367.993 233.22 366.652 238.398 361.187 241.737C358.352 243.47 355.289 244.484 351.956 244.372C339.117 243.939 326.583 241.977 314.652 236.928C311.472 235.581 308.836 233.613 306.698 230.942C301.971 225.038 303.014 218.086 309.264 213.781C312.204 211.76 315.537 210.84 319.022 210.512C320.908 210.337 322.823 210.483 324.726 210.483Z" fill="#A3C717"/>
</svg>
